<svg width="288" height="214" viewBox="0 0 288 214" fill="none" xmlns="http://www.w3.org/2000/svg">
<g filter="url(#filter0_dd_4303_2849)">
<rect x="40" y="20" width="208" height="134" rx="24" fill="white"/>
<rect x="42.5" y="22.5" width="203" height="129" rx="21.5" stroke="#00CA47" stroke-width="5"/>
<path fill-rule="evenodd" clip-rule="evenodd" d="M156.617 47.0186C164.687 47.0186 168.657 47.0186 173.016 48.3883C175.355 49.2354 177.48 50.5864 179.239 52.3457C180.998 54.1049 182.349 56.2294 183.196 58.5688C184.566 62.8908 184.566 66.8982 184.566 74.9316V99.1055C184.566 107.13 184.566 111.137 183.196 115.468C182.349 117.808 180.998 119.932 179.239 121.691C177.48 123.451 175.355 124.802 173.016 125.649C168.694 127.019 164.687 127.019 156.654 127.019H132.406C124.382 127.019 120.375 127.019 116.044 125.649C113.705 124.802 111.58 123.451 109.821 121.691C108.062 119.932 106.711 117.808 105.864 115.468C104.531 111.146 104.531 107.176 104.531 99.1055V74.8945C104.531 66.8705 104.531 62.8631 105.901 58.5317C106.748 56.1924 108.099 54.0679 109.858 52.3086C111.617 50.5494 113.742 49.1984 116.081 48.3513C120.366 47.0186 124.382 47.0186 132.406 47.0186H156.617Z" fill="url(#paint0_linear_4303_2849)"/>
<path d="M146.548 73.2381C150.48 73.2442 154.283 74.6408 157.284 77.1807C157.594 77.4615 157.999 77.6132 158.417 77.6046C158.836 77.596 159.235 77.4278 159.533 77.1344L162.624 74.034C162.779 73.8802 162.9 73.696 162.98 73.4929C163.061 73.2899 163.098 73.0725 163.09 72.8543C163.082 72.6361 163.03 72.4219 162.935 72.2251C162.84 72.0284 162.706 71.8533 162.541 71.711C160.113 69.6457 157.306 68.0739 154.276 67.0835L155.202 62.5208C155.25 62.2863 155.245 62.044 155.188 61.8116C155.13 61.5792 155.022 61.3624 154.87 61.1771C154.719 60.9919 154.528 60.8427 154.311 60.7405C154.095 60.6384 153.858 60.5858 153.619 60.5865H147.668C147.299 60.5862 146.942 60.7116 146.654 60.9422C146.366 61.1727 146.166 61.4945 146.086 61.8545L145.253 65.9359C137.331 66.3246 130.612 70.2487 130.612 78.2913C130.612 85.2418 136.165 88.2311 142.032 90.3228C147.585 92.3866 150.528 93.1548 150.528 96.0608C150.528 98.9669 147.594 100.799 143.272 100.799C139.078 100.866 135.026 99.2806 131.991 96.3848C131.689 96.0886 131.284 95.9226 130.862 95.9226C130.439 95.9226 130.034 96.0886 129.732 96.3848L126.419 99.624C126.264 99.7733 126.141 99.9523 126.057 100.15C125.973 100.348 125.93 100.561 125.93 100.776C125.93 100.991 125.973 101.204 126.057 101.402C126.141 101.6 126.264 101.779 126.419 101.928C129.119 104.457 132.414 106.262 135.998 107.176L135.072 111.406C135.024 111.642 135.027 111.886 135.083 112.121C135.139 112.355 135.246 112.575 135.396 112.764C135.546 112.953 135.736 113.107 135.952 113.214C136.168 113.322 136.405 113.38 136.646 113.386H142.615C142.987 113.388 143.348 113.262 143.637 113.03C143.927 112.797 144.128 112.472 144.207 112.109L145.068 108.102C154.563 107.518 160.366 102.41 160.366 94.9317C160.366 88.046 154.581 85.14 147.557 82.7707C143.541 81.2621 140.07 80.2719 140.07 77.2918C140.07 74.3117 143.309 73.2381 146.548 73.2381Z" fill="white"/>
</g>
<defs>
<filter id="filter0_dd_4303_2849" x="0" y="0" width="288" height="214" filterUnits="userSpaceOnUse" color-interpolation-filters="sRGB">
<feFlood flood-opacity="0" result="BackgroundImageFix"/>
<feColorMatrix in="SourceAlpha" type="matrix" values="0 0 0 0 0 0 0 0 0 0 0 0 0 0 0 0 0 0 127 0" result="hardAlpha"/>
<feOffset dy="2"/>
<feGaussianBlur stdDeviation="10"/>
<feColorMatrix type="matrix" values="0 0 0 0 0.717647 0 0 0 0 0.717647 0 0 0 0 0.717647 0 0 0 0.08 0"/>
<feBlend mode="normal" in2="BackgroundImageFix" result="effect1_dropShadow_4303_2849"/>
<feColorMatrix in="SourceAlpha" type="matrix" values="0 0 0 0 0 0 0 0 0 0 0 0 0 0 0 0 0 0 127 0" result="hardAlpha"/>
<feOffset dy="20"/>
<feGaussianBlur stdDeviation="20"/>
<feColorMatrix type="matrix" values="0 0 0 0 0.717647 0 0 0 0 0.717647 0 0 0 0 0.717647 0 0 0 0.08 0"/>
<feBlend mode="normal" in2="effect1_dropShadow_4303_2849" result="effect2_dropShadow_4303_2849"/>
<feBlend mode="normal" in="SourceGraphic" in2="effect2_dropShadow_4303_2849" result="shape"/>
</filter>
<linearGradient id="paint0_linear_4303_2849" x1="144.512" y1="126.982" x2="144.512" y2="47.0186" gradientUnits="userSpaceOnUse">
<stop stop-color="#00C244"/>
<stop offset="1" stop-color="#00D64B"/>
</linearGradient>
</defs>
</svg>
