<svg width="3840" height="2474" viewBox="0 0 208 134" fill="none" xmlns="http://www.w3.org/2000/svg">
<g transform="translate(-40, -20)">
<rect x="40" y="20" width="208" height="134" rx="24" fill="white"/>
<rect x="42.5" y="22.5" width="203" height="129" rx="21.5" stroke="url(#paint0_linear_4303_2826)" stroke-width="5"/>
<path d="M139.479 103.059H134.8V66.6557H147.203C150.346 66.6557 153.026 67.7034 155.219 69.7989C157.461 71.8944 158.582 74.4529 158.582 77.4743C158.582 80.5689 157.461 83.1273 155.219 85.1985C153.051 87.2696 150.37 88.293 147.203 88.293H139.479V103.059ZM139.479 71.1391V83.834H147.3C149.152 83.834 150.711 83.2004 151.93 81.9578C153.172 80.7151 153.806 79.2044 153.806 77.4987C153.806 75.8174 153.172 74.3311 151.93 73.0884C150.711 71.797 149.176 71.1635 147.3 71.1635H139.479V71.1391Z" fill="#3C4043"/>
<path d="M170.813 77.3281C174.273 77.3281 177.002 78.2541 179 80.1059C180.998 81.9578 181.997 84.4919 181.997 87.7082V103.059H177.538V99.599H177.343C175.418 102.45 172.835 103.863 169.619 103.863C166.866 103.863 164.575 103.059 162.723 101.426C160.872 99.7939 159.946 97.7715 159.946 95.3349C159.946 92.7521 160.92 90.7053 162.87 89.1946C164.819 87.6595 167.426 86.9041 170.667 86.9041C173.445 86.9041 175.735 87.4158 177.514 88.4392V87.3671C177.514 85.7345 176.88 84.37 175.589 83.2248C174.297 82.0796 172.787 81.5192 171.057 81.5192C168.45 81.5192 166.378 82.6156 164.868 84.833L160.75 82.2501C163.016 78.9607 166.378 77.3281 170.813 77.3281ZM164.77 95.408C164.77 96.6263 165.282 97.6497 166.33 98.4538C167.353 99.2579 168.571 99.6721 169.96 99.6721C171.934 99.6721 173.688 98.9411 175.223 97.4791C176.758 96.0171 177.538 94.3115 177.538 92.3378C176.076 91.1926 174.054 90.6078 171.447 90.6078C169.546 90.6078 167.962 91.0708 166.695 91.9723C165.404 92.9226 164.77 94.0678 164.77 95.408Z" fill="#3C4043"/>
<path d="M207.436 78.1325L191.841 114H187.017L192.816 101.451L182.533 78.1325H187.626L195.033 96.0174H195.131L202.343 78.1325H207.436Z" fill="#3C4043"/>
<path d="M120.87 85.3447C120.87 83.8194 120.733 82.3598 120.48 80.9563H100.87V88.9972L112.164 88.9997C111.706 91.6751 110.231 93.9558 107.973 95.4762V100.693H114.695C118.621 97.06 120.87 91.6897 120.87 85.3447Z" fill="#4285F4"/>
<path d="M107.975 95.4765C106.104 96.7387 103.694 97.477 100.875 97.477C95.4289 97.477 90.8091 93.8074 89.1546 88.861H82.22V94.2411C85.6556 101.059 92.7169 105.737 100.875 105.737C106.513 105.737 111.25 103.883 114.698 100.691L107.975 95.4765Z" fill="#34A853"/>
<path d="M88.5014 84.8695C88.5014 83.4806 88.7329 82.138 89.1544 80.8759V75.4958H82.2198C80.7992 78.315 80 81.4972 80 84.8695C80 88.2418 80.8016 91.4241 82.2198 94.2432L89.1544 88.8632C88.7329 87.601 88.5014 86.2584 88.5014 84.8695Z" fill="#FABB05"/>
<path d="M100.875 72.26C103.952 72.26 106.708 73.3199 108.884 75.391L114.841 69.4383C111.223 66.0685 106.506 63.9998 100.875 63.9998C92.7194 63.9998 85.6554 68.6781 82.2198 75.4958L89.1544 80.8759C90.8089 75.9295 95.4289 72.26 100.875 72.26Z" fill="#E94235"/>
</g>
<defs>

<linearGradient id="paint0_linear_4303_2826" x1="144" y1="20" x2="144" y2="154" gradientUnits="userSpaceOnUse">
<stop stop-color="#E94235"/>
<stop offset="0.33" stop-color="#FABB05"/>
<stop offset="0.66" stop-color="#34A853"/>
<stop offset="1" stop-color="#4285F4"/>
</linearGradient>
</defs>
</svg>
